<svg xmlns="http://www.w3.org/2000/svg" xml:space="preserve" width="400" height="400" style="fill-rule:evenodd" viewBox="0 0 112.889 112.889" id="svg2" version="1.1"><defs id="defs4"><linearGradient y2="295.102" x2="188.735" y1="6.075" x1="21.865" gradientUnits="userSpaceOnUse" id="linearGradient3226"><stop id="stop3228" style="stop-color:#000;stop-opacity:0" offset="0"/><stop offset=".633" style="stop-color:#fff;stop-opacity:0" id="stop3234"/><stop offset="1" style="stop-color:#000;stop-opacity:1" id="stop3232"/></linearGradient><linearGradient id="id0" gradientUnits="userSpaceOnUse" x1="52.196" y1="88.399" x2="-7.866" y2="24.444"><stop offset="0" style="stop-color:#fff;stop-opacity:.00884956" id="stop11"/><stop offset="1" style="stop-color:#fff;stop-opacity:.784314" id="stop13"/></linearGradient><linearGradient id="id1" gradientUnits="userSpaceOnUse" x1="21.865" y1="6.075" x2="188.735" y2="295.102"><stop offset="0" style="stop-color:#000;stop-opacity:.392157" id="stop16"/><stop id="stop2212" style="stop-color:#fff;stop-opacity:0" offset="1"/></linearGradient><linearGradient id="id6" gradientUnits="userSpaceOnUse" x1="213.074" y1="57.514" x2="138.261" y2="26.319"><stop offset="0" style="stop-color:#fffdff;stop-opacity:1" id="stop25"/><stop id="stop3190" style="stop-color:#fff;stop-opacity:0" offset="1"/></linearGradient><linearGradient id="id7" gradientUnits="userSpaceOnUse" x1="89.161" y1="14.942" x2="147.454" y2="115.908"><stop offset="0" style="stop-color:#fff;stop-opacity:1" id="stop30"/><stop offset="1" style="stop-color:#fff;stop-opacity:0" id="stop32"/></linearGradient><style type="text/css" id="style6">.fil12{fill:#838281}</style></defs><g id="g2434" transform="matrix(.37957 0 0 .37957 14 -2.208)"><path id="path2488_4" d="M174.64 24.02c6.194.016 12.692.24 19.024.705 15.048 1.105 28.94 3.551 35.022 7.84 3.21 2.938 5.483 8.75 6.588 15.602 1.011 6.27 1 13.298-.203 19.818-1.17 6.343-3.45 12.142-6.985 16.13-2.404 2.713-5.42 4.585-9.093 5.177-8.103 1.307-12.814-6.652-19.35-17.7-5.8-9.807-12.886-21.772-24.853-32.412-4.796-3.463-8.992.066-6.456 2.9l.046.045c12.686 10.54 19.899 22.773 25.778 32.712 7.82 13.22 13.449 22.74 25.832 20.744a20.868 20.868 0 0 0 6.95-2.417c9.559 18.013 14.975 38.568 14.975 60.387-1.921 45.547-24.233 80.931-55.316 102.611-48.273 33.671-117.7 34.287-164.747-11.418-23.665-22.99-37.756-55.574-37.756-91.193 0-8.75.87-17.299 2.532-25.559-.893-4.76-1.298-9.907-1.553-13.838l-.009-.106c-1.065-11.305-1.788-27.235-.582-40.745.996-11.15 3.196-20.423 7.418-23.266.295-.198.544-.439.75-.706 1.395-1.8 9.468-7.117 21.845-10.61 6.231-1.757 13.474-2.982 21.387-2.945 1.826.008 3.69.087 5.583.238 11.162.893 23.056 10.333 31.309 21.855 3.408 4.757 6.168 9.824 7.973 14.772 1.758 4.821 2.614 9.514 2.284 13.635-.346 4.325-2.056 8.01-5.512 10.486-6.058 4.339-14.559 1.671-24.29-1.384-15.162-4.762-32.95-10.34-51.946 3.986v.005c-4.756 3.343-1.36 8.252 1.464 7.21 17.81-14.775 34.464-9.551 48.587-5.116 11.347 3.563 21.26 6.672 29.898.485 5.132-3.676 7.664-9.006 8.158-15.178.403-5.04-.6-10.639-2.664-16.298-2.018-5.533-5.05-11.136-8.766-16.325-5.075-7.084-11.486-13.47-18.415-17.957 16.287-7.433 34.392-11.57 53.463-11.57 9.596 0 18.945 1.054 27.94 3.042 3.805-1.638 8.922-2.21 13.382-2.842l.05-.015c5.082-.45 11.134-.732 17.621-.777.871-.006 1.753-.01 2.637-.008z" style="fill-opacity:1;fill:url(#id2)"/><path id="path2488_5" d="M174.025 17.778c-14.417.015-27.314 1.119-33.143 2.828a3.208 3.208 0 0 0-.909.432 136.058 136.058 0 0 0-27.01-2.696c-21.723 0-42.249 5.11-60.443 14.193-3.516-1.52-7.1-2.492-10.642-2.775-10.93-.874-20.892.593-29.198 2.933C-.356 36.365-9.586 42.456-12.107 45.09c-5.855 4.287-8.727 15.105-9.856 27.725-1.71 19.125.33 42.918 1.888 52.613.052.386.175.757.362 1.101-1.77 8.722-2.7 17.751-2.7 26.994 0 37.326 15.158 71.116 39.655 95.58 24.506 24.473 58.348 39.61 95.721 39.61 37.372 0 71.21-15.138 95.713-39.61 24.494-24.465 39.646-58.254 39.646-95.58 0-23.268-5.89-45.167-16.263-64.286.274-.281.541-.569.803-.864 4.359-4.909 7.122-11.781 8.489-19.179 1.335-7.222 1.35-15.008.23-21.946-1.335-8.26-4.334-15.454-8.719-19.382a3.238 3.238 0 0 0-.317-.264c-7.092-5.119-22.263-7.932-38.437-9.118a274.206 274.206 0 0 0-20.083-.705zm.6 6.352c6.197.016 12.698.24 19.033.705 15.056 1.104 28.955 3.547 35.04 7.832 3.212 2.934 5.485 8.74 6.591 15.585 1.012 6.263 1 13.283-.203 19.796-1.171 6.337-3.451 12.129-6.989 16.113-2.405 2.71-5.422 4.58-9.097 5.172-8.108 1.305-12.82-6.646-19.36-17.682-5.804-9.797-12.893-21.749-24.865-32.377-4.8-3.459-8.997.066-6.46 2.898l.046.043c12.692 10.53 19.909 22.75 25.79 32.678 7.825 13.205 13.457 22.716 25.846 20.721a20.9 20.9 0 0 0 6.953-2.414c9.564 17.993 14.983 38.527 14.983 60.322 0 35.582-14.438 67.787-37.775 91.095-23.33 23.302-55.57 37.716-91.195 37.716-35.625 0-67.87-14.413-91.204-37.716-23.34-23.308-37.775-55.514-37.775-91.095 0-8.74.87-17.28 2.533-25.531-.893-4.755-1.299-9.896-1.553-13.823l-.01-.106c-1.066-11.293-1.789-27.206-.581-40.702.996-11.137 3.197-20.4 7.42-23.24.296-.198.545-.439.75-.705 1.397-1.8 9.474-7.11 21.857-10.599 6.235-1.756 13.481-2.98 21.398-2.942 1.827.008 3.692.086 5.586.238 11.167.892 23.068 10.322 31.325 21.83 3.41 4.753 6.17 9.815 7.976 14.757 1.76 4.816 2.616 9.504 2.286 13.62-.346 4.321-2.057 8.002-5.515 10.476-6.06 4.333-14.566 1.669-24.301-1.383-15.17-4.757-32.968-10.329-51.973 3.982v.004c-4.759 3.34-1.36 8.243 1.465 7.202 17.818-14.759 34.48-9.54 48.61-5.11 11.353 3.56 21.271 6.665 29.914.485 5.135-3.673 7.668-8.997 8.162-15.162.403-5.035-.6-10.627-2.665-16.28-2.02-5.528-5.052-11.124-8.771-16.308-5.077-7.077-11.492-13.456-18.424-17.937 16.295-7.426 34.41-11.559 53.49-11.559 9.6 0 18.954 1.053 27.954 3.04 3.807-1.637 8.926-2.208 13.39-2.839l.05-.016c5.084-.449 11.139-.73 17.63-.775.87-.006 1.752-.011 2.638-.01zm13.791 68.577c-12.467 0-22.58 10.096-22.58 22.545 0 12.448 10.113 22.544 22.58 22.544 12.468 0 22.58-10.096 22.58-22.544 0-12.449-10.112-22.545-22.58-22.545zM47.613 109.173c-24.375 0-44.146 19.739-44.146 44.076s19.771 44.067 44.146 44.067c24.376 0 44.146-19.73 44.146-44.067s-19.77-44.076-44.146-44.076zm12.195 23.064c11.174 0 20.242 9.054 20.242 20.21s-9.068 20.21-20.242 20.21c-11.174 0-20.242-9.054-20.242-20.21s9.068-20.21 20.242-20.21zm112.179 17.594c-.555 0-1.086.104-1.58.282l-62.879 18.307c-.123.03-.242.065-.362.105l-.017.01-.036.008-.009.01a4.665 4.665 0 0 0-.264 8.695c.01.005.024.004.035.009l38.702 21.804v.168c0 6.706-2.982 12.798-7.81 17.223-4.918 4.51-11.748 7.295-19.315 7.295-4.773 0-9.347-1.11-13.333-3.145-3.895-1.988-7.254-4.864-9.706-8.431-.034-.054-.07-.107-.106-.159a4.24 4.24 0 0 0-3.512-1.868 4.233 4.233 0 0 0-4.236 4.23c0 .938.311 1.8.83 2.501 3.247 4.75 7.709 8.579 12.892 11.224a37.828 37.828 0 0 0 17.17 4.114c9.75 0 18.61-3.653 25.043-9.55 4.674-4.285 8.068-9.747 9.618-15.875 6.313 5.223 14.637 8.378 23.701 8.378 9.75 0 18.61-3.644 25.042-9.541 6.524-5.98 10.554-14.266 10.554-23.435 0-.388-.01-.86-.036-1.374v-.08a4.233 4.233 0 0 0-4.235-4.228 4.233 4.233 0 0 0-4.236 4.229v.114c.002.066.013.129.018.194.014.31.018.683.018 1.145 0 6.707-2.982 12.799-7.81 17.224-4.918 4.509-11.747 7.295-19.315 7.295-7.263 0-13.869-2.573-18.75-6.793a25.618 25.618 0 0 1-2.79-2.81l20.755-40.262c.401-.689.635-1.49.635-2.343a4.674 4.674 0 0 0-4.677-4.67z" style="fill:#a80030;fill-opacity:1"/><path class="fil12" d="M64.14 104.93c5.208 1.87 11.24 3.682 15.19 3.694 10.64.035 14.652-7.366 14.657-16.36.003-5.08-3.407-15.236-5.828-18.55l-.118.869c1.156 4.238 1.656 8.372 1.351 12.186-.494 6.172-3.025 11.502-8.158 15.179-5.22 3.738-10.906 4.082-17.092 2.983h-.001z" id="path64" style="fill:#141414;fill-opacity:.39215698"/><path class="fil12" d="M215.147 95.762c1.474 1.105 2.929 1.98 4.393 2.434 3.983 1.233 7.348 1.306 10.167.5a128.38 128.38 0 0 0-2.766-5.532 20.868 20.868 0 0 1-6.95 2.417c-1.74.28-3.346.333-4.844.18z" id="path66" style="fill:#141414;fill-opacity:.39215698"/></g></svg>